<svg width="33" height="33" viewBox="0 0 33 33" fill="none" xmlns="http://www.w3.org/2000/svg">
<path fill-rule="evenodd" clip-rule="evenodd" d="M16.5001 26.3034C21.6547 26.3034 25.8334 22.1248 25.8334 16.9701C25.8334 11.8155 21.6547 7.63678 16.5001 7.63678C11.3454 7.63678 7.16675 11.8155 7.16675 16.9701C7.16675 22.1248 11.3454 26.3034 16.5001 26.3034ZM16.5001 20.9701C18.7092 20.9701 20.5001 19.1793 20.5001 16.9701C20.5001 14.761 18.7092 12.9701 16.5001 12.9701C14.2909 12.9701 12.5001 14.761 12.5001 16.9701C12.5001 19.1793 14.2909 20.9701 16.5001 20.9701Z" fill="#F9F9F9"/>
<path d="M16.5 7.63679V4.97012" stroke="#F9F9F9" stroke-width="2" stroke-linecap="round"/>
<path d="M25.8333 16.9701L28.5 16.9701" stroke="#F9F9F9" stroke-width="2" stroke-linecap="round"/>
<path d="M16.5 28.9701L16.5 26.3035" stroke="#F9F9F9" stroke-width="2" stroke-linecap="round"/>
<path d="M4.50008 16.9701H7.16675" stroke="#F9F9F9" stroke-width="2" stroke-linecap="round"/>
</svg>
