<svg width="33" height="33" viewBox="0 0 33 33" fill="none" xmlns="http://www.w3.org/2000/svg">
<path d="M7.16675 17.9829C7.16675 16.1725 7.16675 15.2674 7.5327 14.4717C7.89864 13.6761 8.5859 13.087 9.96042 11.9088L11.2938 10.766C13.7782 8.63647 15.0204 7.57172 16.5001 7.57172C17.9798 7.57172 19.222 8.63647 21.7064 10.766L23.0397 11.9088C24.4143 13.087 25.1015 13.6761 25.4675 14.4717C25.8334 15.2674 25.8334 16.1725 25.8334 17.9829V23.6367C25.8334 26.1509 25.8334 27.408 25.0524 28.189C24.2713 28.9701 23.0142 28.9701 20.5001 28.9701H12.5001C9.98592 28.9701 8.72885 28.9701 7.9478 28.189C7.16675 27.408 7.16675 26.1509 7.16675 23.6367V17.9829Z" stroke="#222222"/>
<path d="M19.8334 28.9701V21.9701C19.8334 21.4178 19.3857 20.9701 18.8334 20.9701H14.1667C13.6145 20.9701 13.1667 21.4178 13.1667 21.9701V28.9701" stroke="#222222" stroke-linecap="round" stroke-linejoin="round"/>
</svg>
