<svg width="33" height="33" viewBox="0 0 33 33" fill="none" xmlns="http://www.w3.org/2000/svg">
<path fill-rule="evenodd" clip-rule="evenodd" d="M7.5327 14.4717C7.16675 15.2673 7.16675 16.1725 7.16675 17.9828V23.6367C7.16675 26.1508 7.16675 27.4079 7.9478 28.189C8.69354 28.9347 9.87324 28.9684 12.1667 28.9699V22.3034C12.1667 21.0148 13.2114 19.9701 14.5001 19.9701H18.5001C19.7887 19.9701 20.8334 21.0148 20.8334 22.3034V28.9699C23.1269 28.9684 24.3066 28.9347 25.0524 28.189C25.8334 27.4079 25.8334 26.1508 25.8334 23.6367V17.9828C25.8334 16.1725 25.8334 15.2673 25.4675 14.4717C25.1015 13.676 24.4143 13.0869 23.0397 11.9088L21.7064 10.7659C19.222 8.63641 17.9798 7.57166 16.5001 7.57166C15.0204 7.57166 13.7782 8.63641 11.2938 10.7659L9.96042 11.9088C8.5859 13.0869 7.89864 13.676 7.5327 14.4717ZM18.8334 28.97V22.3034C18.8334 22.1193 18.6842 21.9701 18.5001 21.9701H14.5001C14.316 21.9701 14.1667 22.1193 14.1667 22.3034V28.97H18.8334Z" fill="#F9F9F9"/>
</svg>
